# xmcd
#
# Track frame offsets:
#  150
#  18999
#  39444
#  60893
#  84003
#  106205
#  129799
#  150200
#  172714
#  193632
#  215381
#  235345
#  262291
#
# Disc length: 3800 seconds
#
# Revision: 1
# Processed by: cddbd v1.5.1PL2 Copyright (c) Steve Scherf et al.
# Submitted via: Collectorz.com_Music_Collector 6.11
#
DISCID=8f0ed60d
DTITLE=Magic Slim and the Teardrops - That Ain't Right
DYEAR=2006
DGENRE=Blues
TTITLE0=Magic Slim - In The Dark
TTITLE1=Magic Slim - She Is Mine
TTITLE2=Magic Slim - Strange Things Happen
TTITLE3=Magic Slim - Cummins Prison Farm
TTITLE4=Magic Slim - Soul Blues
TTITLE5=Magic Slim - Just To Be With You
TTITLE6=Joe Carter - I'm Worried
TTITLE7=Joe Carter - Anna Lee
TTITLE8=Joe Carter - Sweet Home Chicago
TTITLE9=Fred Below - Route 66
TTITLE10=Joe Carter - Joe's Boogie
TTITLE11=Joe Carter - Stormy Monday
TTITLE12=Joe Carter - Bobby's Rock
EXTD=
EXTT0=
EXTT1=
EXTT2=
EXTT3=
EXTT4=
EXTT5=
EXTT6=
EXTT7=
EXTT8=
EXTT9=
EXTT10=
EXTT11=
EXTT12=
PLAYORDER=
